<?xml version="1.0" standalone="no"?><!DOCTYPE svg PUBLIC "-//W3C//DTD SVG 1.1//EN" "http://www.w3.org/Graphics/SVG/1.1/DTD/svg11.dtd"><svg t="1782289909943" class="icon" viewBox="0 0 1024 1024" version="1.1" xmlns="http://www.w3.org/2000/svg" p-id="1696" xmlns:xlink="http://www.w3.org/1999/xlink" width="200" height="200"><path d="M914.285714 292.571429H577.828571l168.228572-168.228572L694.857143 73.142857l-181.028572 181.028572L332.8 73.142857l-51.2 51.2 168.228571 168.228572H113.371429c-20.114286 0-36.571429 16.457143-36.571429 36.571428v585.142857c0 20.114286 16.457143 36.571429 36.571429 36.571429h804.571428c20.114286 0 36.571429-16.457143 36.571429-36.571429V329.142857c-3.657143-20.114286-18.285714-36.571429-40.228572-36.571428z m-36.571428 585.142857H146.285714V365.714286h731.428572v512z" p-id="1697"></path><path d="M444.342857 804.571429c3.657143 1.828571 9.142857 3.657143 14.628572 3.657142 9.142857 0 18.285714-3.657143 25.6-10.971428l153.6-153.6c7.314286-7.314286 10.971429-16.457143 10.971428-25.6 0-9.142857-3.657143-18.285714-10.971428-25.6L484.571429 438.857143c-10.971429-10.971429-25.6-12.8-40.228572-7.314286-12.8 5.485714-21.942857 18.285714-21.942857 32.914286v307.2c-1.828571 12.8 7.314286 27.428571 21.942857 32.914286zM493.714286 552.228571l65.828571 65.828572-65.828571 65.828571v-131.657143z" p-id="1698"></path></svg>